<mxfile host="app.diagrams.net" agent="Mozilla/5.0 (Windows NT 10.0; Win64; x64) AppleWebKit/537.36 (KHTML, like Gecko) Chrome/128.0.0.0 Safari/537.36" version="24.7.15">
  <diagram name="第 1 页" id="ZcEf7aJKJCeWP8L_aRb3">
    <mxGraphModel dx="1434" dy="738" grid="1" gridSize="10" guides="1" tooltips="1" connect="1" arrows="1" fold="1" page="1" pageScale="1" pageWidth="827" pageHeight="1169" math="0" shadow="0">
      <root>
        <mxCell id="0" />
        <mxCell id="1" parent="0" />
        <mxCell id="Qc9PiRafTRn_lZ-FXjk0-19" value="" style="rounded=0;whiteSpace=wrap;html=1;dashed=1;fillColor=#d5e8d4;strokeColor=#82b366;" vertex="1" parent="1">
          <mxGeometry x="270" y="150" width="140" height="110" as="geometry" />
        </mxCell>
        <mxCell id="Qc9PiRafTRn_lZ-FXjk0-1" value="管理中心子系统&lt;div&gt;PMC&lt;/div&gt;" style="rounded=0;whiteSpace=wrap;html=1;" vertex="1" parent="1">
          <mxGeometry x="280" y="14" width="120" height="60" as="geometry" />
        </mxCell>
        <mxCell id="Qc9PiRafTRn_lZ-FXjk0-2" value="请求方&lt;div&gt;service requester&lt;/div&gt;" style="rounded=0;whiteSpace=wrap;html=1;" vertex="1" parent="1">
          <mxGeometry x="28" y="172" width="120" height="60" as="geometry" />
        </mxCell>
        <mxCell id="Qc9PiRafTRn_lZ-FXjk0-3" value="服务方&lt;div&gt;service provider&lt;/div&gt;" style="rounded=0;whiteSpace=wrap;html=1;" vertex="1" parent="1">
          <mxGeometry x="535" y="170" width="120" height="60" as="geometry" />
        </mxCell>
        <mxCell id="Qc9PiRafTRn_lZ-FXjk0-4" value="总线节点子系统&lt;div&gt;PDC&lt;/div&gt;&lt;div&gt;&lt;font color=&quot;#ff6666&quot;&gt;核心&lt;/font&gt;&lt;/div&gt;" style="rounded=0;whiteSpace=wrap;html=1;fontStyle=1" vertex="1" parent="1">
          <mxGeometry x="280" y="84" width="120" height="60" as="geometry" />
        </mxCell>
        <mxCell id="Qc9PiRafTRn_lZ-FXjk0-5" value="总线节点&lt;div&gt;PDN node&lt;/div&gt;" style="rounded=0;whiteSpace=wrap;html=1;" vertex="1" parent="1">
          <mxGeometry x="280" y="160" width="120" height="40" as="geometry" />
        </mxCell>
        <mxCell id="Qc9PiRafTRn_lZ-FXjk0-6" value="" style="endArrow=classic;html=1;rounded=0;entryX=-0.025;entryY=0.4;entryDx=0;entryDy=0;entryPerimeter=0;exitX=0.992;exitY=0.383;exitDx=0;exitDy=0;exitPerimeter=0;" edge="1" parent="1">
          <mxGeometry width="50" height="50" relative="1" as="geometry">
            <mxPoint x="149.03999999999996" y="192.98000000000002" as="sourcePoint" />
            <mxPoint x="277" y="194" as="targetPoint" />
          </mxGeometry>
        </mxCell>
        <mxCell id="Qc9PiRafTRn_lZ-FXjk0-7" value="" style="endArrow=classic;html=1;rounded=0;entryX=-0.025;entryY=0.4;entryDx=0;entryDy=0;entryPerimeter=0;exitX=0.992;exitY=0.383;exitDx=0;exitDy=0;exitPerimeter=0;" edge="1" parent="1">
          <mxGeometry width="50" height="50" relative="1" as="geometry">
            <mxPoint x="404" y="192" as="sourcePoint" />
            <mxPoint x="532" y="193" as="targetPoint" />
          </mxGeometry>
        </mxCell>
        <mxCell id="Qc9PiRafTRn_lZ-FXjk0-8" value="" style="endArrow=classic;html=1;rounded=0;entryX=-0.025;entryY=0.4;entryDx=0;entryDy=0;entryPerimeter=0;exitX=0.992;exitY=0.383;exitDx=0;exitDy=0;exitPerimeter=0;" edge="1" parent="1">
          <mxGeometry width="50" height="50" relative="1" as="geometry">
            <mxPoint x="275.96" y="213.02" as="sourcePoint" />
            <mxPoint x="147.96" y="212.02" as="targetPoint" />
          </mxGeometry>
        </mxCell>
        <mxCell id="Qc9PiRafTRn_lZ-FXjk0-9" value="" style="endArrow=classic;html=1;rounded=0;entryX=-0.025;entryY=0.4;entryDx=0;entryDy=0;entryPerimeter=0;exitX=0.992;exitY=0.383;exitDx=0;exitDy=0;exitPerimeter=0;" edge="1" parent="1">
          <mxGeometry width="50" height="50" relative="1" as="geometry">
            <mxPoint x="532" y="213" as="sourcePoint" />
            <mxPoint x="404" y="212" as="targetPoint" />
          </mxGeometry>
        </mxCell>
        <mxCell id="Qc9PiRafTRn_lZ-FXjk0-10" value="总线节点&lt;div&gt;PDN node&lt;/div&gt;" style="rounded=0;whiteSpace=wrap;html=1;" vertex="1" parent="1">
          <mxGeometry x="280" y="210" width="120" height="40" as="geometry" />
        </mxCell>
        <mxCell id="Qc9PiRafTRn_lZ-FXjk0-11" value="1" style="text;html=1;align=center;verticalAlign=middle;whiteSpace=wrap;rounded=0;" vertex="1" parent="1">
          <mxGeometry x="178" y="162" width="60" height="30" as="geometry" />
        </mxCell>
        <mxCell id="Qc9PiRafTRn_lZ-FXjk0-12" value="2" style="text;html=1;align=center;verticalAlign=middle;whiteSpace=wrap;rounded=0;" vertex="1" parent="1">
          <mxGeometry x="434" y="160" width="60" height="30" as="geometry" />
        </mxCell>
        <mxCell id="Qc9PiRafTRn_lZ-FXjk0-15" value="3" style="text;html=1;align=center;verticalAlign=middle;whiteSpace=wrap;rounded=0;" vertex="1" parent="1">
          <mxGeometry x="434" y="220" width="60" height="30" as="geometry" />
        </mxCell>
        <mxCell id="Qc9PiRafTRn_lZ-FXjk0-16" value="4" style="text;html=1;align=center;verticalAlign=middle;whiteSpace=wrap;rounded=0;" vertex="1" parent="1">
          <mxGeometry x="178" y="222" width="60" height="30" as="geometry" />
        </mxCell>
        <mxCell id="Qc9PiRafTRn_lZ-FXjk0-18" value="&lt;font face=&quot;Helvetica&quot;&gt;&lt;span style=&quot;text-indent: -21pt; background-color: initial; font-size: 12pt;&quot;&gt;n&amp;nbsp;&lt;/span&gt;&lt;b style=&quot;text-indent: -21pt; background-color: initial;&quot;&gt;管理&lt;/b&gt;&lt;b style=&quot;text-indent: -21pt; background-color: initial;&quot;&gt;中心&lt;/b&gt;&lt;b style=&quot;text-indent: -21pt; background-color: initial;&quot;&gt;子系统（PMC）&lt;/b&gt;&lt;/font&gt;&lt;div&gt;&lt;font face=&quot;g2yMa6rsrT6qIR5kGWK0&quot;&gt;服务总线平台的核心子系统之一，实现了各类资源的接入管理、请求方、服务方等资源的&lt;font color=&quot;#ff0000&quot;&gt;注册、审核、授权，以及全网（如：内、外网等）资源的同步。&lt;/font&gt;&lt;/font&gt;&lt;/div&gt;&lt;div&gt;&lt;font face=&quot;g2yMa6rsrT6qIR5kGWK0&quot;&gt;&lt;span style=&quot;text-indent: -18.05pt; font-size: 13px; background-color: initial;&quot;&gt;n&amp;nbsp;&lt;/span&gt;&lt;b style=&quot;text-indent: -18.05pt; font-size: 13px; background-color: initial;&quot;&gt;总线节点&lt;/b&gt;&lt;b style=&quot;text-indent: -18.05pt; font-size: 13px; background-color: initial;&quot;&gt;子系统（PDN）&lt;/b&gt;&lt;/font&gt;&lt;/div&gt;&lt;div&gt;&lt;font face=&quot;g2yMa6rsrT6qIR5kGWK0&quot;&gt;&lt;span style=&quot;text-indent: 21pt; font-size: 13px; background-color: initial;&quot;&gt;服务总线&lt;/span&gt;&lt;span style=&quot;text-indent: 21pt; font-size: 13px; background-color: initial;&quot;&gt;平台的核心子系统之一&lt;/span&gt;&lt;span style=&quot;text-indent: 21pt; font-size: 13px; background-color: initial;&quot;&gt;，&lt;/span&gt;&lt;span style=&quot;text-indent: 21pt; font-size: 13px; background-color: initial;&quot;&gt;负责代理平台上所有的请求，支持&lt;font color=&quot;#ff0000&quot;&gt;点对点任务管理、请求分包、服务匹配、消息接收转发、路由寻址、资源同步&lt;/font&gt;等功能&lt;/span&gt;&lt;span style=&quot;text-indent: 21pt; font-size: 13px; background-color: initial;&quot;&gt;。它是&lt;/span&gt;&lt;span style=&quot;text-indent: 21pt; font-size: 13px; background-color: initial;&quot;&gt;服务总线&lt;/span&gt;&lt;span style=&quot;text-indent: 21pt; font-size: 13px; background-color: initial;&quot;&gt;平台最重要的核心软件实体。&lt;/span&gt;&lt;/font&gt;&lt;/div&gt;&lt;div&gt;&lt;span style=&quot;font-family: &amp;quot;Times New Roman&amp;quot;; text-indent: -18.05pt; font-size: 13px; background-color: initial;&quot;&gt;n&amp;nbsp;&lt;/span&gt;&lt;b style=&quot;font-family: &amp;quot;Times New Roman&amp;quot;; text-indent: -18.05pt; font-size: 13px; background-color: initial;&quot;&gt;总线节点&lt;/b&gt;&lt;b style=&quot;font-family: &amp;quot;Times New Roman&amp;quot;; text-indent: -18.05pt; font-size: 13px; background-color: initial;&quot;&gt;（PDN node）&lt;/b&gt;&lt;/div&gt;&lt;div&gt;&lt;font style=&quot;font-family: FajOhG5ZUKjqoIJDk59t; text-indent: 21pt; font-size: 13px; background-color: initial;&quot;&gt;特指部署&lt;/font&gt;&lt;span style=&quot;font-family: FajOhG5ZUKjqoIJDk59t; text-indent: 21pt; font-size: 13px; background-color: initial;&quot;&gt;服务总线&lt;/span&gt;&lt;font style=&quot;font-family: FajOhG5ZUKjqoIJDk59t; text-indent: 21pt; font-size: 13px; background-color: initial;&quot;&gt;平台的核心子系统&lt;/font&gt;&lt;span style=&quot;font-family: FajOhG5ZUKjqoIJDk59t; text-indent: 21pt; font-size: 13px; background-color: initial;&quot;&gt;---&lt;/span&gt;&lt;span style=&quot;font-family: FajOhG5ZUKjqoIJDk59t; text-indent: 21pt; font-size: 13px; background-color: initial;&quot;&gt;平台&lt;/span&gt;&lt;font style=&quot;font-family: FajOhG5ZUKjqoIJDk59t; text-indent: 21pt; font-size: 13px; background-color: initial;&quot;&gt;调度子系统的服务器或服务器集群&lt;/font&gt;&lt;span style=&quot;font-family: FajOhG5ZUKjqoIJDk59t; text-indent: 21pt; font-size: 13px; background-color: initial;&quot;&gt;，&lt;/span&gt;&lt;font style=&quot;font-family: FajOhG5ZUKjqoIJDk59t; text-indent: 21pt; font-size: 13px; background-color: initial;&quot;&gt;有时也用&lt;/font&gt;&lt;span style=&quot;font-family: FajOhG5ZUKjqoIJDk59t; text-indent: 21pt; font-size: 13px; background-color: initial;&quot;&gt;总线节点&lt;/span&gt;&lt;font style=&quot;font-family: FajOhG5ZUKjqoIJDk59t; text-indent: 21pt; font-size: 13px; background-color: initial;&quot;&gt;来指代其上的&lt;/font&gt;&lt;span style=&quot;font-family: FajOhG5ZUKjqoIJDk59t; text-indent: 21pt; font-size: 13px; background-color: initial;&quot;&gt;平台&lt;/span&gt;&lt;font style=&quot;font-family: FajOhG5ZUKjqoIJDk59t; text-indent: 21pt; font-size: 13px; background-color: initial;&quot;&gt;调度子系统。&lt;/font&gt;&lt;span style=&quot;font-family: FajOhG5ZUKjqoIJDk59t; text-indent: 21pt; font-size: 13px; background-color: initial;&quot;&gt;&lt;font color=&quot;#ff0000&quot;&gt;总线节点&lt;/font&gt;&lt;/span&gt;&lt;font style=&quot;font-family: FajOhG5ZUKjqoIJDk59t; text-indent: 21pt; font-size: 13px; background-color: initial;&quot;&gt;&lt;font color=&quot;#ff0000&quot;&gt;在请求方与服务方之间充当中介&lt;/font&gt;，每个&lt;/font&gt;&lt;span style=&quot;font-family: FajOhG5ZUKjqoIJDk59t; text-indent: 21pt; font-size: 13px; background-color: initial;&quot;&gt;总线节点&lt;/span&gt;&lt;font style=&quot;font-family: FajOhG5ZUKjqoIJDk59t; text-indent: 21pt; font-size: 13px; background-color: initial;&quot;&gt;可以挂接多个请求方和服务方。&lt;/font&gt;&lt;/div&gt;&lt;div&gt;&lt;span style=&quot;font-family: FajOhG5ZUKjqoIJDk59t; text-indent: 21pt; font-size: 13px; background-color: initial;&quot;&gt;当请求方要访问某个服务方时，只需要&lt;font color=&quot;#ff0000&quot;&gt;将请求发往自己所挂接的总线节点子系统，由其负责路由寻址、可靠传输等，将请求送达目标服务方&lt;/font&gt;，并将目标服务方的运行结果返回给请求方。&lt;/span&gt;&lt;/div&gt;&lt;div&gt;&lt;br&gt;&lt;/div&gt;" style="text;whiteSpace=wrap;html=1;fillColor=#ffe6cc;strokeColor=#d79b00;" vertex="1" parent="1">
          <mxGeometry x="28" y="300" width="630" height="210" as="geometry" />
        </mxCell>
      </root>
    </mxGraphModel>
  </diagram>
</mxfile>
